<svg width="76" height="98" viewBox="0 0 76 98" fill="none" xmlns="http://www.w3.org/2000/svg">
<path d="M56.8856 22.6392C50.5563 22.6392 45.3901 17.5547 45.3901 11.3255C45.3901 5.09604 50.5563 0.0114746 56.8856 0.0114746C63.2151 0.0114746 68.3813 5.09604 68.3813 11.3255C68.3813 17.5547 63.2151 22.6392 56.8856 22.6392ZM56.8856 2.20032C51.788 2.20032 47.6139 6.2745 47.6139 11.3255C47.6139 16.3762 51.7537 20.4506 56.8856 20.4506C61.9834 20.4506 66.1575 16.3762 66.1575 11.3255C66.1575 6.2745 61.9834 2.20032 56.8856 2.20032Z" fill="white"/>
<path d="M58.0148 1.02173H55.7909V21.3598H58.0148V1.02173Z" fill="white"/>
<path d="M67.1846 10.1135H46.5198V12.3022H67.1846V10.1135Z" fill="white"/>
<path d="M57.605 22.3022L56.3392 20.4839C60.0342 17.9585 61.9501 14.524 61.7447 10.7527C61.5396 7.18355 59.4526 3.81625 56.4418 2.16641L57.5024 0.24707C61.1975 2.26745 63.7291 6.34162 63.9686 10.6517C64.2425 15.1974 61.9843 19.339 57.605 22.3022Z" fill="white"/>
<path d="M56.304 22.3359C52.8144 20.6186 50.2141 16.2749 49.9404 11.7966C49.6666 7.11599 51.8905 3.00801 56.1671 0.280762L57.3988 2.13268C53.8065 4.42236 51.9589 7.78945 52.1643 11.6617C52.3695 15.332 54.5249 19.0024 57.2962 20.3829L56.304 22.3359Z" fill="white"/>
<path d="M16.138 28.128C12.614 31.9328 10.527 33.9194 10.048 36.4112C9.74002 37.9938 9.05582 32.1011 9.39792 29.0033C9.74002 25.7709 10.4244 24.9964 11.5192 24.3229C12.1693 23.919 13.7431 23.4138 15.3168 23.077C15.3853 23.077 15.83 23.3801 15.9326 23.8851C16.0695 24.4576 15.6589 24.7607 15.4194 25.6698C15.0773 26.7811 16.309 27.9259 16.138 28.128Z" fill="white"/>
<path d="M46.2793 51.3614C51.0007 49.8463 57.8775 47.6912 57.9118 47.7584C59.3828 49.2064 62.2567 51.6982 63.6595 54.5939C65.7123 58.8029 65.1648 60.7897 65.2333 60.7559C65.7464 60.554 70.3652 58.8703 75.3604 56.8163C75.8735 51.6307 74.6419 50.2166 73.5812 48.6004C72.1785 46.4453 69.1337 44.5596 69.3047 43.2129C69.373 42.7413 68.8942 41.3608 67.9703 41.0915C67.8677 41.0579 67.7308 41.0915 67.6966 41.0915C65.8833 41.5965 48.2294 47.2535 44.8423 48.2973C43.6449 48.6676 45.6293 51.5635 46.2793 51.3614Z" fill="white"/>
<path d="M9.15838 59.5439C8.9532 60.2173 9.26096 61.9008 9.91104 62.5743C9.94537 62.6079 4.09491 64.2915 1.35769 65.1671C1.01559 65.2681 0.126213 64.6283 0.0234155 63.5508C-0.0450464 62.7089 0.297262 62.2713 0.707825 62.1365C4.1975 61.0591 9.1925 59.5101 9.15838 59.5439Z" fill="white"/>
<path d="M60.3075 25.6025C60.2732 25.7708 59.0758 29.7778 57.2966 30.0809C56.1676 30.2829 55.8255 29.8788 55.6544 29.6431C54.9017 28.6329 54.9702 26.68 54.9361 26.68C54.286 26.9493 53.8411 27.7576 53.7385 28.0269C53.1228 29.5421 53.4305 30.4512 53.2254 31.2929C52.7805 33.0776 49.5988 34.7949 48.1276 34.6266C46.4512 34.4582 45.7327 31.8992 42.722 29.3064C41.3875 28.1615 39.6086 26.882 37.7609 26.2086C37.4873 26.1075 37.3504 25.8044 37.3847 25.2994C37.3847 25.2658 37.3847 25.1984 37.4873 24.9963C37.5899 24.8617 37.8978 24.626 38.1374 24.3903C39.9848 22.673 41.0454 20.013 41.1139 17.1171C41.2165 14.5581 40.1902 12.0663 38.2743 10.0797C35.9476 7.68902 32.937 6.24106 29.3788 6.17363C25.8548 6.10641 22.7073 7.28486 20.4834 9.23781C19.9702 9.64197 19.6966 9.94489 19.6966 9.94489C17.5753 12.1673 17.0278 14.6253 16.8568 15.3998C16.5488 16.7467 16.5147 17.8579 16.5488 18.3293C16.6173 19.6088 16.8227 20.6526 17.6094 22.2352C18.1569 23.3129 19.0122 23.9189 18.7727 24.4577C18.6701 24.6934 18.4306 24.7606 18.0885 25.333C17.8833 25.6362 17.849 25.8044 17.8148 25.9055C17.712 26.3096 17.7805 26.6125 17.8148 26.7474C18.02 27.5217 18.7042 27.7912 18.8755 28.1615C19.3886 29.2389 16.1726 31.5288 14.496 33.3807C11.8959 36.2429 9.98003 40.654 9.60359 43.6171C8.91939 49.0382 10.0485 52.6412 10.9722 55.0319C11.0063 55.0991 11.2802 55.8736 11.3484 56.3786C11.4512 57.2206 11.2458 57.6245 11.1433 58.6011C11.0748 59.5102 11.0748 60.2509 11.3484 60.9244C11.8618 62.2713 12.9566 63.4498 14.5645 63.8875C14.9066 63.9886 16.7883 64.561 18.5332 63.4836C19.3543 62.9784 19.5938 62.406 19.7992 61.9346C19.8676 61.7325 20.0387 61.1265 19.9018 61.1265C19.5597 61.1939 18.807 61.1601 17.9516 60.5204C17.3699 60.0827 16.7883 59.1061 16.7542 58.0287C16.7199 57.3552 16.8911 56.8502 17.0622 56.4797C17.1304 56.3786 17.1989 56.1429 17.6438 55.7052C17.849 55.4695 18.2939 55.2338 18.2939 55.2338C18.328 55.1328 17.7805 54.7962 17.4384 54.0217C15.9331 50.5534 17.7805 45.873 18.8755 45.3006C19.0465 45.1995 17.6438 52.9441 21.6125 55.7052C21.6466 55.739 19.4228 56.4124 19.3543 56.4461C19.0122 56.7154 18.7042 57.4563 18.9781 58.1633C19.2176 58.7357 19.6623 59.4428 20.586 59.3418C20.8598 59.3082 22.6047 58.7357 22.6388 58.7357C22.7414 58.7357 22.9124 60.5877 22.1941 62.2039C21.9887 62.6755 21.5097 63.6182 20.3808 64.5946C20.3123 64.662 20.2782 64.6956 20.2782 64.6956C21.4071 66.615 23.8363 69.0731 27.3601 75.5719C27.805 76.38 28.0446 77.1207 28.1813 77.4574C28.1813 77.4574 28.1813 77.5584 28.1813 77.6595C28.2841 79.2085 23.5284 82.6092 22.9124 86.0437C22.7757 86.8856 22.9124 87.5591 23.2547 88.906C24.2469 93.014 27.5997 98.1658 30.5762 97.6944C32.629 97.3577 34.1687 94.4618 34.4423 92.3742C34.7503 89.916 33.5186 89.1753 33.9633 86.8518C34.5449 83.6868 37.2821 83.5521 39.3006 79.2757C40.2928 77.1543 40.5323 75.3024 40.5664 74.831C41.148 69.275 37.4873 65.5712 38.582 64.9988C38.8559 64.8303 43.7824 66.5478 44.8431 70.1506C46.1091 74.4606 41.5244 77.5248 43.2693 82.5756C43.7483 83.9225 44.501 84.7978 44.98 85.3704C47.6485 88.4008 52.5068 90.2191 54.1832 88.6701C55.4492 87.4917 54.9017 84.3939 53.978 82.9459C53.807 82.7102 53.3621 82.0706 52.8489 81.3633C52.0278 80.2859 51.7542 80.0838 51.5488 79.8145C50.2488 77.8277 54.3201 73.484 55.5518 68.2312C55.6887 67.7262 55.8598 66.8171 55.6887 65.7058C55.4834 64.0896 54.6622 62.9112 54.1491 62.2377C51.1384 58.3316 45.8011 55.7726 43.0298 51.2268C40.4981 47.0516 40.7718 42.2702 41.8665 41.7988C42.8587 41.361 44.7064 44.5935 48.2302 44.3914C48.5723 44.3578 48.8118 44.3242 49.0172 44.2904C52.0621 43.7179 54.9361 40.1824 57.3651 37.253C59.4179 34.7949 59.6231 34.4582 61.2997 32.0338C61.9498 31.0911 62.1208 30.7879 62.2919 29.7441C62.634 26.8484 60.3075 25.6025 60.3075 25.6025ZM37.0426 12.6723C37.6927 13.4805 38.0348 14.356 38.0348 14.356C38.1374 14.6591 38.6164 15.9386 38.582 17.2517C38.5138 19.5752 38.0348 20.8211 36.6662 22.3699C36.5636 22.4709 35.982 23.0097 35.8794 23.077C35.2978 23.4475 35.195 23.5485 34.5449 23.8515C33.587 24.222 32.4579 24.4239 31.1921 24.4913C26.0259 24.727 22.5362 21.5282 22.6731 17.5548C22.7414 15.6693 23.5284 13.8172 25.068 12.3356C27.5997 9.9787 31.0211 10.147 31.6368 10.147C34.1687 10.1806 35.982 11.2918 37.0426 12.6723Z" fill="white"/>
</svg>
